<svg xmlns="https://www.w3.org/2000/svg" width="98.831" height="133" viewBox="0 0 98.831 133">
  <g id="Group_757" data-name="Group 757" transform="translate(-39.789 -238.826)">
    <g id="Group_755" data-name="Group 755" transform="translate(40.289 239.326)">
      <path id="Path_977" data-name="Path 977" d="M69.216,270.575a11.45,11.45,0,1,0-11.452-11.452A11.452,11.452,0,0,0,69.216,270.575Zm11.4,5.776H57.809a9.334,9.334,0,0,0-9.335,9.335v5.535H89.958v-5.535A9.337,9.337,0,0,0,80.62,276.351Z" transform="translate(-20.301 -218.937)" fill="#d36010" stroke="#d36010" stroke-width="1"/>
      <path id="Path_978" data-name="Path 978" d="M131.235,239.326H47.173a6.884,6.884,0,0,0-6.884,6.884V364.442a6.887,6.887,0,0,0,6.884,6.884h84.062a6.887,6.887,0,0,0,6.884-6.884V246.21A6.884,6.884,0,0,0,131.235,239.326ZM64.4,355.317a3.411,3.411,0,0,1-3.738,0c-2.712-1.766-7.425-5.538-7.5-10.491a5.453,5.453,0,0,1,9.369-3.941,5.453,5.453,0,0,1,9.369,3.941C71.822,349.779,67.11,353.551,64.4,355.317ZM99.8,359H83.948a4.3,4.3,0,0,1,0-8.605H99.8a4.3,4.3,0,1,1,0,8.605Zm20.652-17.21h-36.5a4.3,4.3,0,0,1,0-8.605h36.5a4.3,4.3,0,1,1,0,8.605Zm5.889-26.738a3.441,3.441,0,0,1-3.442,3.442H55.51a3.441,3.441,0,0,1-3.442-3.442V261.18a3.439,3.439,0,0,1,3.442-3.442H122.9a3.439,3.439,0,0,1,3.442,3.442Z" transform="translate(-40.289 -239.326)" fill="#ed7828" stroke="#d36010" stroke-width="1"/>
    </g>
  </g>
</svg>
