<svg xmlns="https://www.w3.org/2000/svg" width="147.712" height="132.955" viewBox="0 0 147.712 132.955">
  <g id="Group_754" data-name="Group 754" transform="translate(-238.265 -104.267)">
    <g id="Group_753" data-name="Group 753" transform="translate(238.803 104.783)">
      <path id="Path_975" data-name="Path 975" d="M345.083,209.682l-6.7-20.1a4.452,4.452,0,0,1,.294-3.454,52.4,52.4,0,0,0-29.794-73.617,62.5,62.5,0,0,1,3.685,35.508,61.444,61.444,0,0,1-49.332,48.848,64.249,64.249,0,0,1-9.7.942,52.366,52.366,0,0,0,62.223,11.145,4.443,4.443,0,0,1,3.432-.283l20.175,6.723A4.515,4.515,0,0,0,345.083,209.682Z" transform="translate(-198.688 -83.735)" fill="#d36010" stroke="#d36010" stroke-width="1"/>
      <path id="Path_976" data-name="Path 976" d="M282.015,105.718a52.391,52.391,0,0,0-36.568,75.4,4.452,4.452,0,0,1,.294,3.454l-6.7,20.1a4.515,4.515,0,0,0,5.714,5.714l20.175-6.723a4.443,4.443,0,0,1,3.432.283,52.442,52.442,0,1,0,13.65-98.229Zm13.341,67.8H269.3a4.653,4.653,0,1,1,0-9.306h26.056a4.653,4.653,0,1,1,0,9.306ZM313.967,154.9H269.3a4.653,4.653,0,1,1,0-9.306h44.668a4.653,4.653,0,1,1,0,9.306Z" transform="translate(-238.803 -104.783)" fill="#ed7828" stroke="#ed7828" stroke-width="1"/>
    </g>
  </g>
</svg>
