<svg xmlns="https://www.w3.org/2000/svg" width="251.016" height="184.484" viewBox="0 0 251.016 184.484">
  <g id="Group_720" data-name="Group 720" transform="translate(-8087 -608)">
    <path id="Path_928" data-name="Path 928" d="M8102.947,608l-6.384,7.837h-4.624V786.21h241.415s-1.8-11.208,0-16.839,0-153.534,0-153.534L8318.587,608h-215.64Z" fill="#fff"/>
    <g id="Group_719" data-name="Group 719" transform="translate(7811.461 413.371)">
      <g id="Group_702" data-name="Group 702" transform="translate(275.539 194.629)">
        <path id="Path_914" data-name="Path 914" d="M512.082,379.113H290a14.487,14.487,0,0,1-14.464-14.473V209.093A14.479,14.479,0,0,1,290,194.629h222.08a14.487,14.487,0,0,1,14.473,14.464V364.641A14.494,14.494,0,0,1,512.082,379.113ZM290,201.152a7.951,7.951,0,0,0-7.941,7.941V364.641A7.95,7.95,0,0,0,290,372.581h222.08a7.945,7.945,0,0,0,7.941-7.941V209.093a7.945,7.945,0,0,0-7.941-7.941Z" transform="translate(-275.539 -194.629)" fill="#003444"/>
      </g>
      <g id="Group_703" data-name="Group 703" transform="translate(276.709 235.06)">
        <path id="Path_915" data-name="Path 915" d="M521.077,205.714h-14.49a3.261,3.261,0,1,1,0-6.523h14.49a3.261,3.261,0,1,1,0,6.523Zm-43.48,0H463.1a3.261,3.261,0,1,1,0-6.523h14.5a3.261,3.261,0,1,1,0,6.523Zm-28.99,0h-28.99a3.261,3.261,0,0,1,0-6.523h28.99a3.261,3.261,0,0,1,0,6.523Zm-43.48,0h-14.5a3.261,3.261,0,1,1,0-6.523h14.5a3.261,3.261,0,0,1,0,6.523Zm-43.489,0h-14.49a3.261,3.261,0,0,1,0-6.523h14.49a3.261,3.261,0,1,1,0,6.523Zm-28.99,0H303.668a3.261,3.261,0,1,1,0-6.523h28.981a3.261,3.261,0,1,1,0,6.523Zm-43.48,0H278.933a3.261,3.261,0,1,1,0-6.523h10.236a3.261,3.261,0,1,1,0,6.523Z" transform="translate(-275.671 -199.191)" fill="#003444"/>
      </g>
      <g id="Group_704" data-name="Group 704" transform="translate(291.323 208.109)">
        <path id="Path_916" data-name="Path 916" d="M287.352,216.224a10.037,10.037,0,1,1,10.041-10.032A10.046,10.046,0,0,1,287.352,216.224Zm0-13.551a3.514,3.514,0,1,0,3.518,3.519A3.52,3.52,0,0,0,287.352,202.673Z" transform="translate(-277.32 -196.15)" fill="#0093b5"/>
      </g>
      <g id="Group_705" data-name="Group 705" transform="translate(314.038 208.109)">
        <path id="Path_917" data-name="Path 917" d="M289.916,216.224a10.037,10.037,0,1,1,10.041-10.032A10.046,10.046,0,0,1,289.916,216.224Zm0-13.551a3.514,3.514,0,1,0,3.51,3.519A3.519,3.519,0,0,0,289.916,202.673Z" transform="translate(-279.883 -196.15)" fill="#0093b5"/>
      </g>
      <g id="Group_706" data-name="Group 706" transform="translate(336.744 208.109)">
        <path id="Path_918" data-name="Path 918" d="M292.486,216.224a10.037,10.037,0,1,1,10.041-10.032A10.048,10.048,0,0,1,292.486,216.224Zm0-13.551A3.514,3.514,0,1,0,296,206.192,3.514,3.514,0,0,0,292.486,202.673Z" transform="translate(-282.445 -196.15)" fill="#0093b5"/>
      </g>
      <g id="Group_712" data-name="Group 712" transform="translate(339.288 263.513)">
        <g id="Group_707" data-name="Group 707" transform="translate(0 56.632)">
          <path id="Path_919" data-name="Path 919" d="M301,210.037a2.436,2.436,0,0,0-3.261-.957,2.942,2.942,0,0,0-1.152,1.32l-2.3,4.688-2.207-4.662a2.368,2.368,0,0,0-4.467.434,2.384,2.384,0,0,0,.354,1.879l2.872,4.307-5.238-.443a2.691,2.691,0,0,0-1.746.363l-.018.009a2.4,2.4,0,0,0,1.622,4.4l5.442-.4-3.111,4.44a2.468,2.468,0,0,0-.257,2.694,2.436,2.436,0,0,0,3.261.957,2.874,2.874,0,0,0,1.152-1.321l2.3-4.688,2.207,4.662A2.433,2.433,0,0,0,297.887,229a2.39,2.39,0,0,0,3.031-1.719,2.387,2.387,0,0,0-.363-1.888l-2.862-4.3,5.211.434a2.831,2.831,0,0,0,1.719-.3,2.449,2.449,0,0,0,.851-3.3,2.283,2.283,0,0,0-2.411-1.152l-5.442.381,3.111-4.431A2.289,2.289,0,0,0,301,210.037Z" transform="translate(-282.732 -208.791)" fill="#0093b5"/>
        </g>
        <g id="Group_708" data-name="Group 708" transform="translate(24.996 42.472)">
          <path id="Path_920" data-name="Path 920" d="M303.814,208.437a2.425,2.425,0,0,0-3.262-.948,2.747,2.747,0,0,0-1.143,1.312l-2.313,4.689-2.207-4.662a2.4,2.4,0,0,0-1.436-1.276,2.459,2.459,0,0,0-3.04,1.719,2.4,2.4,0,0,0,.363,1.879l2.862,4.3-5.238-.434a2.676,2.676,0,0,0-1.746.354l-.018.009a2.4,2.4,0,0,0,1.631,4.4l5.433-.4-3.1,4.44a2.472,2.472,0,0,0-.266,2.694,2.441,2.441,0,0,0,3.27.948,2.86,2.86,0,0,0,1.143-1.32l2.3-4.68,2.207,4.653a2.4,2.4,0,0,0,1.436,1.294,2.387,2.387,0,0,0,3.031-1.728,2.321,2.321,0,0,0-.355-1.879l-2.863-4.307,5.2.434a2.717,2.717,0,0,0,1.719-.3,2.433,2.433,0,0,0,.86-3.288,2.291,2.291,0,0,0-2.411-1.161l-5.442.381,3.111-4.422A2.332,2.332,0,0,0,303.814,208.437Z" transform="translate(-285.553 -207.194)" fill="#0093b5"/>
        </g>
        <g id="Group_709" data-name="Group 709" transform="translate(49.979 28.316)">
          <path id="Path_921" data-name="Path 921" d="M306.634,206.843a2.428,2.428,0,0,0-3.253-.957,2.917,2.917,0,0,0-1.161,1.321l-2.3,4.68-2.207-4.662a2.39,2.39,0,0,0-1.445-1.276,2.37,2.37,0,0,0-2.676,3.6l2.872,4.3-5.238-.434a2.689,2.689,0,0,0-1.746.363l-.018.009a2.4,2.4,0,0,0,1.631,4.4l5.433-.4-3.1,4.44a2.4,2.4,0,0,0,3,3.651,2.876,2.876,0,0,0,1.152-1.321l2.3-4.688,2.207,4.662a2.417,2.417,0,0,0,1.436,1.285,2.39,2.39,0,0,0,3.031-1.719,2.389,2.389,0,0,0-.355-1.888l-2.863-4.3,5.211.434a2.8,2.8,0,0,0,1.71-.3,2.451,2.451,0,0,0,.86-3.3,2.3,2.3,0,0,0-2.419-1.152l-5.433.381,3.1-4.431A2.29,2.29,0,0,0,306.634,206.843Z" transform="translate(-288.371 -205.596)" fill="#0093b5"/>
        </g>
        <g id="Group_710" data-name="Group 710" transform="translate(74.975 14.16)">
          <path id="Path_922" data-name="Path 922" d="M309.451,205.239a2.433,2.433,0,0,0-3.261-.948,2.794,2.794,0,0,0-1.143,1.312l-2.3,4.688-2.216-4.662a2.413,2.413,0,0,0-1.427-1.276,2.462,2.462,0,0,0-3.04,1.719,2.392,2.392,0,0,0,.354,1.879l2.863,4.3-5.264-.434a2.64,2.64,0,0,0-1.719.355l-.009.009a2.4,2.4,0,0,0,1.622,4.4l5.433-.4-3.1,4.44a2.4,2.4,0,0,0,3,3.651,2.841,2.841,0,0,0,1.152-1.32l2.3-4.689,2.207,4.653a2.377,2.377,0,0,0,4.476-.434,2.392,2.392,0,0,0-.355-1.879l-2.872-4.3,5.211.426a2.7,2.7,0,0,0,1.711-.3,2.424,2.424,0,0,0,.859-3.288,2.283,2.283,0,0,0-2.411-1.161l-5.433.381,3.1-4.422A2.332,2.332,0,0,0,309.451,205.239Z" transform="translate(-291.192 -203.999)" fill="#0093b5"/>
        </g>
        <g id="Group_711" data-name="Group 711" transform="translate(99.969)">
          <path id="Path_923" data-name="Path 923" d="M314.334,210.383l-5.441.39L312,206.342a2.318,2.318,0,0,0,.266-2.694,2.439,2.439,0,0,0-3.261-.957A2.785,2.785,0,0,0,307.865,204l-2.3,4.688-2.216-4.653a2.4,2.4,0,0,0-1.427-1.285,2.457,2.457,0,0,0-3.04,1.719,2.349,2.349,0,0,0,.355,1.879l2.863,4.3-5.238-.434a2.716,2.716,0,0,0-1.737.354l-.018.009a2.489,2.489,0,0,0-.789,3.235,2.45,2.45,0,0,0,2.411,1.17l5.433-.4-3.1,4.44a2.473,2.473,0,0,0-.266,2.694,2.447,2.447,0,0,0,3.27.957,2.812,2.812,0,0,0,1.143-1.32l2.3-4.688,2.207,4.662a2.416,2.416,0,0,0,1.436,1.285,2.354,2.354,0,0,0,1.888-.2,2.361,2.361,0,0,0,.8-3.4l-2.872-4.3,5.211.434a2.762,2.762,0,0,0,1.711-.3,2.452,2.452,0,0,0,.86-3.3A2.3,2.3,0,0,0,314.334,210.383Z" transform="translate(-294.012 -202.401)" fill="#0093b5"/>
        </g>
      </g>
      <g id="Group_713" data-name="Group 713" transform="translate(323.172 246.448)">
        <path id="Path_924" data-name="Path 924" d="M301.319,311.827a3.253,3.253,0,0,1-2.836-1.657l-17.149-30.257a3.273,3.273,0,0,1,1.232-4.449L414.176,200.9a3.177,3.177,0,0,1,2.473-.3,3.251,3.251,0,0,1,1.967,1.533L435.756,232.4a3.26,3.26,0,0,1-1.232,4.449L302.923,311.4A3.175,3.175,0,0,1,301.319,311.827Zm-12.7-32.3,13.932,24.594L428.48,232.781l-13.932-24.594Z" transform="translate(-280.914 -200.476)" fill="#003444"/>
      </g>
      <g id="Group_716" data-name="Group 716" transform="translate(491.424 208.109)">
        <g id="Group_715" data-name="Group 715">
          <g id="Group_714" data-name="Group 714">
            <path id="Path_925" data-name="Path 925" d="M309.939,216.224a10.037,10.037,0,1,1,10.032-10.032A10.048,10.048,0,0,1,309.939,216.224Zm0-13.551a3.514,3.514,0,1,0,3.509,3.519A3.521,3.521,0,0,0,309.939,202.673Z" transform="translate(-299.898 -196.15)" fill="#003444"/>
          </g>
        </g>
      </g>
      <g id="Group_717" data-name="Group 717" transform="translate(291.325 246.441)">
        <path id="Path_926" data-name="Path 926" d="M280.589,281.576a3.266,3.266,0,0,1-1.613-6.106l56.748-32.145A3.258,3.258,0,1,1,338.931,249l-56.748,32.154A3.259,3.259,0,0,1,280.589,281.576Zm69.35-39.306a3.259,3.259,0,0,1-1.6-6.1l12.612-7.143a3.262,3.262,0,0,1,3.208,5.681l-12.612,7.135A3.178,3.178,0,0,1,349.939,242.27Zm25.223-14.287a3.261,3.261,0,0,1-1.613-6.1l6.31-3.581a3.262,3.262,0,0,1,3.208,5.681l-6.3,3.572A3.225,3.225,0,0,1,375.162,227.984Zm18.913-10.715a3.261,3.261,0,0,1-1.6-6.1l18.106-10.263a3.26,3.26,0,1,1,3.217,5.672l-18.115,10.263A3.178,3.178,0,0,1,394.074,217.269Z" transform="translate(-277.32 -200.475)" fill="#003444"/>
      </g>
      <g id="Group_718" data-name="Group 718" transform="translate(463.453 221.66)">
        <path id="Path_927" data-name="Path 927" d="M317.374,331.877a20.659,20.659,0,0,1-20.632-20.641V278.1a3.259,3.259,0,0,1,5.566-2.3l16.3,16.289a3.265,3.265,0,1,1-4.617,4.618l-10.724-10.733v25.267a14.114,14.114,0,0,0,28.227,0v-110.3a3.261,3.261,0,1,1,6.523,0v110.3A20.667,20.667,0,0,1,317.374,331.877Z" transform="translate(-296.742 -197.679)" fill="#003444"/>
      </g>
    </g>
  </g>
</svg>
