<svg xmlns="https://www.w3.org/2000/svg" width="99.851" height="36.163" viewBox="0 0 99.851 36.163">
  <g id="Group_1087" data-name="Group 1087" transform="translate(-205.849 -91.951)">
    <path id="Path_1026" data-name="Path 1026" d="M329.468,124.53a3.434,3.434,0,0,0,2.437-1.01l2.255-2.255a3.446,3.446,0,0,0-4.873-4.874l-2.255,2.255a3.446,3.446,0,0,0,2.437,5.883Z" transform="translate(-77.015 -10.527)" fill="#9ed03c" stroke="#9ed03c" stroke-width="1"/>
    <path id="Path_1027" data-name="Path 1027" d="M352.16,101.838a3.435,3.435,0,0,0,2.437-1.009l2.255-2.255a3.446,3.446,0,0,0-4.874-4.873l-2.255,2.255a3.446,3.446,0,0,0,2.437,5.883Z" transform="translate(-87.542)" fill="#9ed03c" stroke="#9ed03c" stroke-width="1"/>
    <path id="Path_1028" data-name="Path 1028" d="M351.978,123.52a3.446,3.446,0,1,0,4.874-4.873l-2.255-2.255a3.446,3.446,0,1,0-4.873,4.874Z" transform="translate(-87.542 -10.527)" fill="#9ed03c" stroke="#9ed03c" stroke-width="1"/>
    <path id="Path_1029" data-name="Path 1029" d="M329.286,100.828a3.446,3.446,0,0,0,4.873-4.874L331.9,93.7a3.446,3.446,0,0,0-4.873,4.873Z" transform="translate(-77.015)" fill="#9ed03c" stroke="#9ed03c" stroke-width="1"/>
    <path id="Path_1030" data-name="Path 1030" d="M248.066,134.218a3.446,3.446,0,1,0,4.878-4.869l-.6-.6a3.446,3.446,0,0,0-4.878,4.87Z" transform="translate(-40.105 -16.255)" fill="#9ed03c" stroke="#9ed03c" stroke-width="1"/>
    <path id="Path_1031" data-name="Path 1031" d="M264.183,150.336a3.446,3.446,0,1,0,4.873-4.873l-.6-.6a3.446,3.446,0,0,0-4.873,4.873Z" transform="translate(-47.58 -23.732)" fill="#9ed03c" stroke="#9ed03c" stroke-width="1"/>
    <path id="Path_1032" data-name="Path 1032" d="M249.9,151.345a3.438,3.438,0,0,0,2.439-1.012l.6-.6a3.446,3.446,0,0,0-4.878-4.869l-.6.6a3.446,3.446,0,0,0,2.439,5.881Z" transform="translate(-40.105 -23.731)" fill="#9ed03c" stroke="#9ed03c" stroke-width="1"/>
    <path id="Path_1033" data-name="Path 1033" d="M266.015,135.23a3.435,3.435,0,0,0,2.437-1.01l.6-.6a3.446,3.446,0,0,0-4.873-4.874l-.6.6a3.446,3.446,0,0,0,2.437,5.883Z" transform="translate(-47.58 -16.256)" fill="#9ed03c" stroke="#9ed03c" stroke-width="1"/>
    <path id="Path_1034" data-name="Path 1034" d="M402.352,117.075a3.446,3.446,0,0,0,4.878-4.869l-.6-.6a3.446,3.446,0,1,0-4.878,4.869Z" transform="translate(-111.677 -8.303)" fill="#9ed03c" stroke="#9ed03c" stroke-width="1"/>
    <path id="Path_1035" data-name="Path 1035" d="M418.468,133.193a3.446,3.446,0,1,0,4.874-4.873l-.6-.6a3.446,3.446,0,1,0-4.874,4.873Z" transform="translate(-119.152 -15.78)" fill="#9ed03c" stroke="#9ed03c" stroke-width="1"/>
    <path id="Path_1036" data-name="Path 1036" d="M404.187,134.2a3.436,3.436,0,0,0,2.439-1.012l.6-.6a3.446,3.446,0,0,0-4.878-4.869l-.6.6a3.446,3.446,0,0,0,2.439,5.881Z" transform="translate(-111.677 -15.779)" fill="#9ed03c" stroke="#9ed03c" stroke-width="1"/>
    <path id="Path_1037" data-name="Path 1037" d="M420.3,118.088a3.437,3.437,0,0,0,2.437-1.009l.6-.6a3.446,3.446,0,1,0-4.874-4.873l-.6.6a3.446,3.446,0,0,0,2.437,5.883Z" transform="translate(-119.152 -8.304)" fill="#9ed03c" stroke="#9ed03c" stroke-width="1"/>
  </g>
</svg>
