<svg xmlns="https://www.w3.org/2000/svg" width="42.094" height="54" viewBox="0 0 42.094 54">
  <path id="Path_963" data-name="Path 963" d="M-499.678,1022.234h-1.469v-6.568a16.825,16.825,0,0,0-16.828-16.822h0a16.825,16.825,0,0,0-16.832,16.817v6.568h-1.182a2.889,2.889,0,0,0-2.89,2.887l0,24.834a2.889,2.889,0,0,0,2.889,2.888l36.311,0a2.889,2.889,0,0,0,2.89-2.887l0-24.834A2.889,2.889,0,0,0-499.678,1022.234Zm-20.041,22.57-2.712-2.71-3.372-3.37,2.712-2.71,3.372,3.37,9.138-9.132,2.712,2.71Zm12.363-22.571-21.243,0v-7.413a10.618,10.618,0,0,1,10.623-10.613h0a10.618,10.618,0,0,1,10.62,10.616Z" transform="translate(538.883 -998.843)" fill="#003444"/>
</svg>
