<svg xmlns="https://www.w3.org/2000/svg" width="144.469" height="127.737" viewBox="0 0 144.469 127.737">
  <g id="Group_762" data-name="Group 762" transform="translate(-372.917 -307.441)">
    <g id="Group_761" data-name="Group 761" transform="translate(373.417 307.941)">
      <g id="Group_760" data-name="Group 760">
        <g id="Group_759" data-name="Group 759">
          <g id="Group_758" data-name="Group 758">
            <path id="Path_979" data-name="Path 979" d="M478.408,374.521a4.265,4.265,0,0,0-4.268-4.268H433.168a4.268,4.268,0,0,0,0,8.536H474.14A4.267,4.267,0,0,0,478.408,374.521Zm-87.919,32.436a3.416,3.416,0,0,1-3.414-3.414V345.5a3.413,3.413,0,0,1,3.414-3.414h88.773a3.413,3.413,0,0,1,3.414,3.414v32.177l13.657-13.657V321.6a13.658,13.658,0,0,0-13.657-13.657h-95.6A13.658,13.658,0,0,0,373.417,321.6v85.358a13.658,13.658,0,0,0,13.657,13.657h55.712a10.165,10.165,0,0,1,2.848-5.9c1.236-1.246,4.685-4.678,4.685-4.678l3.076-3.076Zm23.9-87.065h13.657a5.121,5.121,0,1,1,0,10.243H414.389a5.121,5.121,0,0,1,0-10.243ZM393.9,318.184a6.829,6.829,0,1,1-6.829,6.829A6.827,6.827,0,0,1,393.9,318.184ZM503.39,391.036l-9.792-9.8a1.708,1.708,0,0,0-2.414,0l-27.438,27.434a1.713,1.713,0,0,0,0,2.417l9.8,9.792a1.708,1.708,0,0,0,2.414,0l27.434-27.434A1.708,1.708,0,0,0,503.39,391.036ZM457.56,417.271a1.7,1.7,0,0,0-2.4-.007c-1.113,1.106-2.711,2.7-3.469,3.462a1.669,1.669,0,0,0-.478,1.058l-.85,11.052a1.707,1.707,0,0,0,1.9,1.827l10.619-1.222a1.7,1.7,0,0,0,1.011-.488l3.469-3.469a1.7,1.7,0,0,0,0-2.414Zm-58.535-29.947a4.268,4.268,0,0,0,0,8.536h61.458a4.268,4.268,0,0,0,0-8.536Zm75.115-34.143H433.168a4.268,4.268,0,0,0,0,8.536H474.14a4.268,4.268,0,1,0,0-8.536Z" transform="translate(-373.417 -307.941)" fill="#ed7828" stroke="#ed7828" stroke-width="1"/>
            <path id="Path_980" data-name="Path 980" d="M397.489,320.941H383.831a3.413,3.413,0,0,0-3.414,3.414v17.072a3.416,3.416,0,0,0,3.414,3.414h13.657a3.416,3.416,0,0,0,3.414-3.414V324.355A3.413,3.413,0,0,0,397.489,320.941Zm102.495,25.211-9.792-9.792a1.708,1.708,0,0,0-2.414,0l-5.145,5.145a1.7,1.7,0,0,0,0,2.414l9.792,9.8a1.709,1.709,0,0,0,2.414,0l5.145-5.146A1.706,1.706,0,0,0,499.984,346.152Z" transform="translate(-356.517 -276.555)" fill="#ed7828"/>
          </g>
        </g>
      </g>
    </g>
  </g>
</svg>
