<svg xmlns="https://www.w3.org/2000/svg" width="266" height="195" viewBox="0 0 266 195">
  <g id="Group_747" data-name="Group 747" transform="translate(-162.822 -13.272)">
    <ellipse id="Ellipse_13" data-name="Ellipse 13" cx="13.5" cy="14" rx="13.5" ry="14" transform="translate(203.822 21.272)" fill="#fff"/>
    <circle id="Ellipse_14" data-name="Ellipse 14" cx="14" cy="14" r="14" transform="translate(360.822 21.272)" fill="#fff"/>
    <ellipse id="Ellipse_15" data-name="Ellipse 15" cx="13.5" cy="14" rx="13.5" ry="14" transform="translate(399.822 68.272)" fill="#fff"/>
    <ellipse id="Ellipse_16" data-name="Ellipse 16" cx="13.5" cy="14" rx="13.5" ry="14" transform="translate(399.822 133.272)" fill="#fff"/>
    <circle id="Ellipse_17" data-name="Ellipse 17" cx="14" cy="14" r="14" transform="translate(164.822 133.272)" fill="#fff"/>
    <circle id="Ellipse_18" data-name="Ellipse 18" cx="14" cy="14" r="14" transform="translate(164.822 68.272)" fill="#fff"/>
    <ellipse id="Ellipse_19" data-name="Ellipse 19" cx="13.5" cy="14" rx="13.5" ry="14" transform="translate(203.822 178.272)" fill="#fff"/>
    <circle id="Ellipse_20" data-name="Ellipse 20" cx="14" cy="14" r="14" transform="translate(360.822 178.272)" fill="#fff"/>
    <path id="Path_955" data-name="Path 955" d="M335.09,53.84H255.31l-14.525,3.055L235.3,67.382v87.375l5.485,13.351,14.525,4.083s68.517.1,70.5,0,15.52,0,15.52,0l10.6-8.234,2.456-9.2v-84.3l-2.456-11.464Z" transform="translate(1.51 0.845)" fill="#fff"/>
    <g id="Group_721" data-name="Group 721" transform="translate(233.621 51.853)">
      <path id="Path_929" data-name="Path 929" d="M276.356,142.672H192.083a20.081,20.081,0,0,1-20.06-20.052V38.331a20.08,20.08,0,0,1,20.06-20.045h84.273a20.08,20.08,0,0,1,20.06,20.045v84.288A20.081,20.081,0,0,1,276.356,142.672ZM192.083,23.949a14.4,14.4,0,0,0-14.389,14.381v84.288a14.407,14.407,0,0,0,14.389,14.389h84.273a14.408,14.408,0,0,0,14.4-14.389V38.331a14.4,14.4,0,0,0-14.4-14.381Z" transform="translate(-172.023 -18.286)" fill="#003444"/>
    </g>
    <g id="Group_722" data-name="Group 722" transform="translate(254.405 13.272)">
      <path id="Path_930" data-name="Path 930" d="M257.55,54.685h-5.663a35.75,35.75,0,1,0-71.5,0h-5.664a41.413,41.413,0,0,1,82.826,0Z" transform="translate(-174.724 -13.272)" fill="#003444"/>
    </g>
    <g id="Group_723" data-name="Group 723" transform="translate(280.382 79.201)">
      <path id="Path_931" data-name="Path 931" d="M193.536,52.719a15.44,15.44,0,1,1,15.436-15.443A15.456,15.456,0,0,1,193.536,52.719Zm0-25.216a9.776,9.776,0,1,0,9.772,9.772A9.786,9.786,0,0,0,193.536,27.5Z" transform="translate(-178.1 -21.84)" fill="#0093b5"/>
    </g>
    <g id="Group_724" data-name="Group 724" transform="translate(162.822 66.597)">
      <path id="Path_932" data-name="Path 932" d="M178.258,51.073a15.436,15.436,0,1,1,15.436-15.436A15.449,15.449,0,0,1,178.258,51.073Zm0-25.2a9.768,9.768,0,1,0,9.765,9.765A9.775,9.775,0,0,0,178.258,25.873Z" transform="translate(-162.822 -20.202)" fill="#003444"/>
    </g>
    <g id="Group_725" data-name="Group 725" transform="translate(202.142 19.959)">
      <path id="Path_933" data-name="Path 933" d="M183.368,45.012A15.436,15.436,0,1,1,198.8,29.569,15.456,15.456,0,0,1,183.368,45.012Zm0-25.208a9.772,9.772,0,1,0,9.772,9.765A9.78,9.78,0,0,0,183.368,19.8Z" transform="translate(-167.932 -14.141)" fill="#003444"/>
    </g>
    <g id="Group_726" data-name="Group 726" transform="translate(358.623 19.959)">
      <path id="Path_934" data-name="Path 934" d="M203.7,45.012a15.436,15.436,0,1,1,15.436-15.443A15.451,15.451,0,0,1,203.7,45.012Zm0-25.208a9.772,9.772,0,1,0,9.772,9.765A9.78,9.78,0,0,0,203.7,19.8Z" transform="translate(-188.268 -14.141)" fill="#003444"/>
    </g>
    <g id="Group_727" data-name="Group 727" transform="translate(202.142 177.393)">
      <path id="Path_935" data-name="Path 935" d="M183.368,65.48A15.44,15.44,0,1,1,198.8,50.044,15.454,15.454,0,0,1,183.368,65.48Zm0-25.216a9.772,9.772,0,1,0,9.772,9.78A9.788,9.788,0,0,0,183.368,40.264Z" transform="translate(-167.932 -34.601)" fill="#003444"/>
    </g>
    <g id="Group_728" data-name="Group 728" transform="translate(358.623 177.393)">
      <path id="Path_936" data-name="Path 936" d="M203.7,65.48a15.44,15.44,0,1,1,15.436-15.436A15.449,15.449,0,0,1,203.7,65.48Zm0-25.216a9.772,9.772,0,1,0,9.772,9.78A9.788,9.788,0,0,0,203.7,40.264Z" transform="translate(-188.268 -34.601)" fill="#003444"/>
    </g>
    <g id="Group_729" data-name="Group 729" transform="translate(162.822 132.017)">
      <path id="Path_937" data-name="Path 937" d="M178.258,59.575a15.436,15.436,0,1,1,15.436-15.443A15.451,15.451,0,0,1,178.258,59.575Zm0-25.208a9.772,9.772,0,1,0,9.765,9.765A9.775,9.775,0,0,0,178.258,34.367Z" transform="translate(-162.822 -28.704)" fill="#003444"/>
    </g>
    <g id="Group_730" data-name="Group 730" transform="translate(397.943 66.597)">
      <path id="Path_938" data-name="Path 938" d="M208.821,51.073a15.436,15.436,0,1,1,15.436-15.436A15.456,15.456,0,0,1,208.821,51.073Zm0-25.2a9.768,9.768,0,1,0,9.765,9.765A9.781,9.781,0,0,0,208.821,25.873Z" transform="translate(-193.378 -20.202)" fill="#003444"/>
    </g>
    <g id="Group_731" data-name="Group 731" transform="translate(397.943 132.017)">
      <path id="Path_939" data-name="Path 939" d="M208.821,59.575a15.436,15.436,0,1,1,15.436-15.443A15.458,15.458,0,0,1,208.821,59.575Zm0-25.208a9.772,9.772,0,1,0,9.765,9.765A9.781,9.781,0,0,0,208.821,34.367Z" transform="translate(-193.378 -28.704)" fill="#003444"/>
    </g>
    <g id="Group_732" data-name="Group 732" transform="translate(280.382 104.416)">
      <path id="Path_940" data-name="Path 940" d="M185.51,70.985h-4.578a2.836,2.836,0,0,1,0-5.671h4.578a5.2,5.2,0,0,0,5.194-5.186V27.949a2.832,2.832,0,0,1,5.663,0V60.128A10.875,10.875,0,0,1,185.51,70.985Z" transform="translate(-178.1 -25.117)" fill="#0093b5"/>
    </g>
    <g id="Group_733" data-name="Group 733" transform="translate(292.986 124.515)">
      <path id="Path_941" data-name="Path 941" d="M192.681,33.392H182.57a2.832,2.832,0,0,1,0-5.663h10.111a2.832,2.832,0,1,1,0,5.663Z" transform="translate(-179.738 -27.729)" fill="#0093b5"/>
    </g>
    <g id="Group_734" data-name="Group 734" transform="translate(192.724 111.911)">
      <path id="Path_942" data-name="Path 942" d="M191.562,31.754H169.54a2.832,2.832,0,1,1,0-5.663h22.022a2.832,2.832,0,1,1,0,5.663Z" transform="translate(-166.708 -26.091)" fill="#0093b5"/>
    </g>
    <g id="Group_735" data-name="Group 735" transform="translate(173.849 111.911)">
      <path id="Path_943" data-name="Path 943" d="M170.234,31.754h-3.147a2.832,2.832,0,0,1,0-5.663h3.147a2.832,2.832,0,1,1,0,5.663Z" transform="translate(-164.255 -26.091)" fill="#0093b5"/>
    </g>
    <g id="Group_736" data-name="Group 736" transform="translate(371.227 111.911)">
      <path id="Path_944" data-name="Path 944" d="M214.76,31.754H192.738a2.832,2.832,0,0,1,0-5.663H214.76a2.832,2.832,0,0,1,0,5.663Z" transform="translate(-189.906 -26.091)" fill="#0093b5"/>
    </g>
    <g id="Group_737" data-name="Group 737" transform="translate(188.022 79.201)">
      <path id="Path_945" data-name="Path 945" d="M195.653,27.5H168.936a2.832,2.832,0,1,1,0-5.663h26.716a2.832,2.832,0,1,1,0,5.663Z" transform="translate(-166.097 -21.84)" fill="#003444"/>
    </g>
    <g id="Group_738" data-name="Group 738" transform="translate(371.227 79.201)">
      <path id="Path_946" data-name="Path 946" d="M219.454,27.5H192.738a2.832,2.832,0,0,1,0-5.663h26.716a2.832,2.832,0,1,1,0,5.663Z" transform="translate(-189.906 -21.84)" fill="#003444"/>
    </g>
    <g id="Group_739" data-name="Group 739" transform="translate(188.022 144.614)">
      <path id="Path_947" data-name="Path 947" d="M195.653,36.012H168.936a2.836,2.836,0,1,1,0-5.671h26.716a2.836,2.836,0,1,1,0,5.671Z" transform="translate(-166.097 -30.341)" fill="#003444"/>
    </g>
    <g id="Group_740" data-name="Group 740" transform="translate(371.227 144.614)">
      <path id="Path_948" data-name="Path 948" d="M219.454,36.012H192.738a2.836,2.836,0,0,1,0-5.671h26.716a2.836,2.836,0,0,1,0,5.671Z" transform="translate(-189.906 -30.341)" fill="#003444"/>
    </g>
    <g id="Group_741" data-name="Group 741" transform="translate(408.977 111.911)">
      <path id="Path_949" data-name="Path 949" d="M200.791,31.754h-3.147a2.832,2.832,0,1,1,0-5.663h3.147a2.832,2.832,0,0,1,0,5.663Z" transform="translate(-194.812 -26.091)" fill="#0093b5"/>
    </g>
    <g id="Group_742" data-name="Group 742" transform="translate(336.6 189.997)">
      <path id="Path_950" data-name="Path 950" d="M210.26,41.91H188.238a2.836,2.836,0,0,1,0-5.671H210.26a2.836,2.836,0,0,1,0,5.671Z" transform="translate(-185.406 -36.239)" fill="#003444"/>
    </g>
    <g id="Group_743" data-name="Group 743" transform="translate(317.717 189.997)">
      <path id="Path_951" data-name="Path 951" d="M188.931,41.91h-3.139a2.836,2.836,0,1,1,0-5.671h3.139a2.836,2.836,0,1,1,0,5.671Z" transform="translate(-182.952 -36.239)" fill="#003444"/>
    </g>
    <g id="Group_744" data-name="Group 744" transform="translate(227.35 189.997)">
      <path id="Path_952" data-name="Path 952" d="M196.062,41.91H174.04a2.836,2.836,0,0,1,0-5.671h22.022a2.836,2.836,0,0,1,0,5.671Z" transform="translate(-171.208 -36.239)" fill="#003444"/>
    </g>
    <g id="Group_745" data-name="Group 745" transform="translate(284.183 189.997)">
      <path id="Path_953" data-name="Path 953" d="M199.031,41.91H181.426a2.836,2.836,0,0,1,0-5.671h17.606a2.836,2.836,0,0,1,0,5.671Z" transform="translate(-178.594 -36.239)" fill="#003444"/>
    </g>
    <g id="Group_746" data-name="Group 746" transform="translate(265.101 189.997)">
      <path id="Path_954" data-name="Path 954" d="M182.093,41.91h-3.14a2.836,2.836,0,1,1,0-5.671h3.14a2.836,2.836,0,1,1,0,5.671Z" transform="translate(-176.114 -36.239)" fill="#003444"/>
    </g>
  </g>
</svg>
