<svg xmlns="https://www.w3.org/2000/svg" width="283" height="183.505" viewBox="0 0 283 183.505">
  <g id="Group_701" data-name="Group 701" transform="translate(-447.801 -75.83)">
    <g id="Group_685" data-name="Group 685" transform="translate(447.801 216.764)">
      <path id="Path_895" data-name="Path 895" d="M722.529,117.786a3.02,3.02,0,1,1,0-6.039,2.22,2.22,0,0,0,2.224-2.224v-8.239a2.227,2.227,0,0,0-2.224-2.232H456.08a2.236,2.236,0,0,0-2.24,2.232v8.239a2.229,2.229,0,0,0,2.24,2.224,3.02,3.02,0,1,1,0,6.039,8.284,8.284,0,0,1-8.28-8.263v-8.239a8.293,8.293,0,0,1,8.28-8.28H722.529a8.286,8.286,0,0,1,8.271,8.28v8.239A8.277,8.277,0,0,1,722.529,117.786Z" transform="translate(-447.801 -93.005)" fill="#003444"/>
    </g>
    <g id="Group_686" data-name="Group 686" transform="translate(475.11 75.83)">
      <path id="Path_896" data-name="Path 896" d="M676.484,222.811H454.149a3.035,3.035,0,0,1-3.02-3.028V87.375A11.567,11.567,0,0,1,462.674,75.83H667.958A11.562,11.562,0,0,1,679.5,87.375V219.783A3.029,3.029,0,0,1,676.484,222.811Zm-219.307-6.048H673.464V87.375a5.512,5.512,0,0,0-5.506-5.506H462.674a5.511,5.511,0,0,0-5.5,5.506Z" transform="translate(-451.129 -75.83)" fill="#003444"/>
    </g>
    <g id="Group_687" data-name="Group 687" transform="translate(585.928 84.339)">
      <path id="Path_897" data-name="Path 897" d="M464.634,80.24a3.372,3.372,0,1,1,3.373,3.381A3.378,3.378,0,0,1,464.634,80.24Z" transform="translate(-464.634 -76.867)" fill="#003444"/>
    </g>
    <g id="Group_688" data-name="Group 688" transform="translate(450.691 234.927)">
      <path id="Path_898" data-name="Path 898" d="M682.171,119.626l-184.613-.246a10.354,10.354,0,0,1-3.881-.763l-43.63-17.585a3.017,3.017,0,1,1,2.256-5.6l43.63,17.593a4.635,4.635,0,0,0,1.649.312l184.6.238a4.35,4.35,0,0,0,1.9-.427L721.058,95.51a3.017,3.017,0,1,1,2.593,5.449l-36.983,17.651A10.451,10.451,0,0,1,682.171,119.626Z" transform="translate(-448.153 -95.218)" fill="#003444"/>
    </g>
    <g id="Group_689" data-name="Group 689" transform="translate(453.053 235.506)">
      <path id="Path_899" data-name="Path 899" d="M717.918,101.328h-24.9a3.02,3.02,0,1,1,0-6.039h24.9a3.02,3.02,0,0,1,0,6.039Zm-38.313,0h-6.712a3.02,3.02,0,1,1,0-6.039h6.712a3.02,3.02,0,0,1,0,6.039Zm-20.129,0H646.052a3.02,3.02,0,0,1,0-6.039h13.424a3.02,3.02,0,1,1,0,6.039Zm-26.841,0H572.241a3.02,3.02,0,0,1,0-6.039h60.394a3.02,3.02,0,1,1,0,6.039Zm-73.811,0h-6.712a3.02,3.02,0,0,1,0-6.039h6.712a3.02,3.02,0,1,1,0,6.039Zm-20.129,0H525.271a3.02,3.02,0,1,1,0-6.039H538.7a3.02,3.02,0,1,1,0,6.039Zm-26.841,0H451.469a3.02,3.02,0,1,1,0-6.039h60.386a3.02,3.02,0,0,1,0,6.039Z" transform="translate(-448.441 -95.289)" fill="#003444"/>
    </g>
    <g id="Group_690" data-name="Group 690" transform="translate(558.185 95.68)">
      <path id="Path_900" data-name="Path 900" d="M520.466,84.288H464.273a3.02,3.02,0,1,1,0-6.039h56.193a3.02,3.02,0,1,1,0,6.039Z" transform="translate(-461.253 -78.249)" fill="#003444"/>
    </g>
    <g id="Group_691" data-name="Group 691" transform="translate(493.573 95.68)">
      <path id="Path_901" data-name="Path 901" d="M641.815,205.381a3.034,3.034,0,0,1-3.019-3.028V84.288H459.418V202.353a3.02,3.02,0,1,1-6.039,0V81.269a3.022,3.022,0,0,1,3.02-3.02H641.815a3.029,3.029,0,0,1,3.028,3.02V202.353A3.036,3.036,0,0,1,641.815,205.381Z" transform="translate(-453.379 -78.249)" fill="#003444"/>
    </g>
    <g id="Group_697" data-name="Group 697" transform="translate(523.064 148.337)">
      <g id="Group_692" data-name="Group 692" transform="translate(0 0.001)">
        <path id="Path_902" data-name="Path 902" d="M477.143,91.13a2.379,2.379,0,0,0-2.314-2.38,2.853,2.853,0,0,0-1.616.566L469,92.2l.361-5.03a2.332,2.332,0,0,0-.6-1.781,2.373,2.373,0,0,0-3.405,0,2.331,2.331,0,0,0-.607,1.772l.369,5.038-4.251-2.9a2.6,2.6,0,0,0-1.658-.542H459.2a2.347,2.347,0,0,0-.73,4.53l4.808,2.281L458.5,97.851a2.415,2.415,0,0,0-1.526,2.158,2.387,2.387,0,0,0,2.314,2.388,2.717,2.717,0,0,0,1.617-.574l4.218-2.872-.369,5.022a2.358,2.358,0,0,0,.607,1.789,2.315,2.315,0,0,0,3.405,0,2.335,2.335,0,0,0,.6-1.772L469,98.95l4.226,2.88a2.693,2.693,0,0,0,1.6.566,2.381,2.381,0,0,0,2.314-2.388,2.242,2.242,0,0,0-1.494-2.15L470.84,95.57l4.776-2.265A2.267,2.267,0,0,0,477.143,91.13Z" transform="translate(-456.973 -84.666)" fill="#0093b5"/>
      </g>
      <g id="Group_693" data-name="Group 693" transform="translate(28.072 0.007)">
        <path id="Path_903" data-name="Path 903" d="M480.572,91.125a2.381,2.381,0,0,0-2.322-2.38,2.714,2.714,0,0,0-1.6.566l-4.226,2.88.369-5.03a2.344,2.344,0,0,0-.6-1.781,2.4,2.4,0,0,0-3.414,0,2.329,2.329,0,0,0-.607,1.772l.369,5.038-4.251-2.9a2.605,2.605,0,0,0-1.649-.542h-.017a2.346,2.346,0,0,0-.738,4.53l4.808,2.281-4.776,2.281a2.347,2.347,0,0,0,.8,4.546,2.71,2.71,0,0,0,1.608-.574l4.218-2.872-.369,5.022a2.355,2.355,0,0,0,.607,1.789,2.284,2.284,0,0,0,1.7.747,2.309,2.309,0,0,0,2.314-2.519l-.369-5.038,4.226,2.872a2.606,2.606,0,0,0,1.6.574A2.383,2.383,0,0,0,480.572,100a2.263,2.263,0,0,0-1.494-2.15l-4.808-2.289,4.776-2.265A2.287,2.287,0,0,0,480.572,91.125Z" transform="translate(-460.394 -84.667)" fill="#0093b5"/>
      </g>
      <g id="Group_694" data-name="Group 694" transform="translate(56.152)">
        <path id="Path_904" data-name="Path 904" d="M483.986,91.131a2.379,2.379,0,0,0-2.314-2.38,2.831,2.831,0,0,0-1.616.566l-4.209,2.88.369-5.038a2.356,2.356,0,0,0-.615-1.781,2.38,2.38,0,0,0-3.405.008,2.354,2.354,0,0,0-.6,1.772l.369,5.038-4.251-2.9a2.612,2.612,0,0,0-1.657-.542h-.016a2.349,2.349,0,0,0-.739,4.53l4.817,2.281-4.784,2.281a2.416,2.416,0,0,0-1.518,2.158,2.381,2.381,0,0,0,2.314,2.388,2.718,2.718,0,0,0,1.617-.574l4.217-2.872-.369,5.022a2.381,2.381,0,0,0,.6,1.789,2.323,2.323,0,0,0,3.413,0,2.351,2.351,0,0,0,.608-1.772l-.369-5.038,4.218,2.88a2.721,2.721,0,0,0,1.608.566,2.381,2.381,0,0,0,2.314-2.388,2.242,2.242,0,0,0-1.493-2.15l-4.809-2.289,4.776-2.265A2.267,2.267,0,0,0,483.986,91.131Z" transform="translate(-463.816 -84.666)" fill="#0093b5"/>
      </g>
      <g id="Group_695" data-name="Group 695" transform="translate(84.224 0.013)">
        <path id="Path_905" data-name="Path 905" d="M487.415,91.12a2.386,2.386,0,0,0-2.322-2.38,2.761,2.761,0,0,0-1.608.566l-4.218,2.88.369-5.03a2.348,2.348,0,0,0-.607-1.781,2.412,2.412,0,0,0-3.414,0,2.368,2.368,0,0,0-.6,1.772l.369,5.038-4.267-2.913a2.6,2.6,0,0,0-1.641-.525h-.017a2.349,2.349,0,0,0-.739,4.53l4.817,2.281-4.784,2.281A2.416,2.416,0,0,0,467.237,100a2.381,2.381,0,0,0,2.314,2.388,2.678,2.678,0,0,0,1.608-.574l4.226-2.872-.369,5.022a2.384,2.384,0,0,0,.6,1.789,2.348,2.348,0,0,0,1.707.747,2.321,2.321,0,0,0,2.314-2.519l-.369-5.038,4.218,2.872a2.651,2.651,0,0,0,1.608.574A2.388,2.388,0,0,0,487.415,100a2.263,2.263,0,0,0-1.494-2.15l-4.808-2.289,4.776-2.265A2.287,2.287,0,0,0,487.415,91.12Z" transform="translate(-467.237 -84.668)" fill="#0093b5"/>
      </g>
      <g id="Group_696" data-name="Group 696" transform="translate(112.304 0.007)">
        <path id="Path_906" data-name="Path 906" d="M489.335,97.854l-4.808-2.289L489.3,93.3a2.28,2.28,0,0,0,1.526-2.175,2.385,2.385,0,0,0-2.314-2.38,2.74,2.74,0,0,0-1.608.566l-4.218,2.88.369-5.03a2.35,2.35,0,0,0-.607-1.781,2.4,2.4,0,0,0-3.414,0,2.325,2.325,0,0,0-.6,1.772l.361,5.038-4.243-2.9a2.624,2.624,0,0,0-1.649-.542h-.025a2.349,2.349,0,0,0-.739,4.53l4.817,2.281-4.784,2.281a2.349,2.349,0,0,0,.8,4.546,2.736,2.736,0,0,0,1.616-.574l4.21-2.872-.361,5.022a2.352,2.352,0,0,0,.6,1.789,2.3,2.3,0,0,0,1.707.747,2.321,2.321,0,0,0,2.314-2.519l-.369-5.038,4.218,2.872a2.631,2.631,0,0,0,1.608.574A2.387,2.387,0,0,0,490.829,100,2.249,2.249,0,0,0,489.335,97.854Z" transform="translate(-470.659 -84.667)" fill="#0093b5"/>
      </g>
    </g>
    <g id="Group_698" data-name="Group 698" transform="translate(512.347 139.244)">
      <path id="Path_907" data-name="Path 907" d="M606.554,123.6H458.695a3.035,3.035,0,0,1-3.028-3.02v-34a3.029,3.029,0,0,1,3.028-3.02H606.554a3.023,3.023,0,0,1,3.02,3.02v34A3.028,3.028,0,0,1,606.554,123.6Zm-144.84-6.048h141.82V89.6H461.715Z" transform="translate(-455.667 -83.558)" fill="#003444"/>
    </g>
  </g>
</svg>
