<svg xmlns="https://www.w3.org/2000/svg" width="48.387" height="54" viewBox="0 0 48.387 54">
  <g id="Group_750" data-name="Group 750" transform="translate(-350 -357)">
    <path id="Path_965" data-name="Path 965" d="M492.611,362.424a.579.579,0,0,0-.62-.526h-5.115a.579.579,0,0,0-.62.526v4.709l6.355,5.617Z" transform="translate(-103.291 -3.713)" fill="#003444"/>
    <path id="Path_966" data-name="Path 966" d="M397.624,379a.779.779,0,0,0,.7-.391.571.571,0,0,0-.15-.7L389,369.8l-7.5-6.625-6.761-5.976a.864.864,0,0,0-1.1,0l-23.43,20.707a.571.571,0,0,0-.15.7.779.779,0,0,0,.7.391Z" fill="#003444"/>
    <path id="Path_967" data-name="Path 967" d="M374.427,451.8v30.935h13.317V467.41a.83.83,0,0,1,.731-.9h8.232a.83.83,0,0,1,.731.9v15.32h13.555V451.8Z" transform="translate(-18.517 -71.731)" fill="#003444"/>
  </g>
</svg>
