<svg xmlns="https://www.w3.org/2000/svg" width="40.862" height="54" viewBox="0 0 40.862 54">
  <g id="Group_752" data-name="Group 752" transform="translate(-512.9 -532.75)">
    <path id="Path_971" data-name="Path 971" d="M528.952,539.086a9.719,9.719,0,1,0,9.719,9.721A9.731,9.731,0,0,0,528.952,539.086Zm0,14.9a5.18,5.18,0,1,1,5.18-5.179A5.185,5.185,0,0,1,528.952,553.986Z" transform="translate(4.36 4.352)" fill="#003444"/>
    <path id="Path_972" data-name="Path 972" d="M526.477,542.681a3.65,3.65,0,1,0,3.651,3.651A3.654,3.654,0,0,0,526.477,542.681Z" transform="translate(6.835 6.826)" fill="#003444"/>
    <path id="Path_973" data-name="Path 973" d="M523.423,557.566l-2.692,12.13H534.4l-2.665-12A21.805,21.805,0,0,1,523.423,557.566Z" transform="translate(5.392 17.054)" fill="#003444"/>
    <path id="Path_974" data-name="Path 974" d="M533.313,532.75c-23.869,0-28.754,35.28-4.167,40.376a20.427,20.427,0,0,0,19.751-6.8C560.162,553.045,550.581,532.75,533.313,532.75Zm0,31.643a11.241,11.241,0,1,1,11.251-11.24A11.256,11.256,0,0,1,533.313,564.393Z" transform="translate(0 0)" fill="#003444"/>
  </g>
</svg>
