<svg xmlns="https://www.w3.org/2000/svg" width="58.098" height="54" viewBox="0 0 58.098 54">
  <g id="login" transform="translate(-1419 -898)">
    <rect id="Rectangle_74" data-name="Rectangle 74" width="58" height="54" transform="translate(1419 898)" fill="none"/>
    <g id="login-2" data-name="login" transform="translate(1247.5 529.025)">
      <path id="Path_968" data-name="Path 968" d="M184.782,371.739a2.358,2.358,0,0,0-2.357,2.355v2.166a2.356,2.356,0,1,0,4.711,0v-2.166A2.358,2.358,0,0,0,184.782,371.739Z" transform="translate(8.91 10.254)" fill="#003444"/>
      <path id="Path_969" data-name="Path 969" d="M224.317,381.716H176.781A5.281,5.281,0,0,0,171.5,387v6.338a5.282,5.282,0,0,0,5.281,5.281h47.535a5.283,5.283,0,0,0,5.281-5.281V387A5.282,5.282,0,0,0,224.317,381.716Zm-35.12,9.225h-2.622l1.311,2.269a.775.775,0,1,1-1.342.775l-1.311-2.269-1.311,2.269a.775.775,0,1,1-1.342-.775l1.311-2.269H181.27a.774.774,0,1,1,0-1.549h2.622l-1.311-2.271a.775.775,0,1,1,1.342-.775l1.311,2.269,1.311-2.269a.775.775,0,1,1,1.342.775l-1.311,2.271H189.2a.774.774,0,1,1,0,1.549Zm10.211,0h-2.622l1.311,2.269a.775.775,0,1,1-1.342.775l-1.311-2.269-1.311,2.269a.776.776,0,0,1-.672.389.766.766,0,0,1-.387-.105.774.774,0,0,1-.283-1.059l1.311-2.269H191.48a.774.774,0,1,1,0-1.549H194.1l-1.311-2.271a.775.775,0,1,1,1.342-.775l1.311,2.269,1.311-2.269a.775.775,0,1,1,1.342.775l-1.311,2.271h2.622a.774.774,0,1,1,0,1.549Zm10.211,0H207l1.311,2.269a.774.774,0,0,1-.283,1.059.766.766,0,0,1-.387.105.776.776,0,0,1-.672-.389l-1.311-2.269-1.311,2.269a.778.778,0,0,1-.672.389.766.766,0,0,1-.387-.105A.774.774,0,0,1,203,393.21l1.309-2.269h-2.622a.774.774,0,0,1,0-1.549h2.623L203,387.121a.775.775,0,1,1,1.342-.775l1.311,2.269,1.311-2.269a.775.775,0,1,1,1.342.775L207,389.392h2.622a.774.774,0,1,1,0,1.549Zm10.211,0h-2.622l1.311,2.269a.775.775,0,1,1-1.342.775l-1.311-2.269-1.313,2.269a.775.775,0,0,1-1.342-.775l1.311-2.269H211.9a.774.774,0,1,1,0-1.549h2.622l-1.313-2.271a.775.775,0,0,1,1.342-.775l1.313,2.269,1.311-2.269a.775.775,0,1,1,1.342.775l-1.311,2.271h2.622a.774.774,0,1,1,0,1.549Z" transform="translate(0 16.358)" fill="#003444"/>
      <path id="Path_970" data-name="Path 970" d="M224.317,368.975H176.781a5.283,5.283,0,0,0-5.281,5.283v6.336a5.282,5.282,0,0,0,5.281,5.283h47.535a5.283,5.283,0,0,0,5.281-5.283v-6.336A5.284,5.284,0,0,0,224.317,368.975Zm-35.6,13.43h-4.361a.773.773,0,0,1-.775-.773V373.2a.774.774,0,0,1,1.549,0v7.656h3.588a.774.774,0,0,1,0,1.549Zm8.882-3.891a3.9,3.9,0,1,1-7.809,0v-2.166a3.9,3.9,0,0,1,7.809,0Zm8.4,2.816a.776.776,0,0,1-.536.737,8.362,8.362,0,0,1-2.324.343,4.913,4.913,0,0,1-2.909-.832,4.743,4.743,0,0,1-1.725-4.1,4.853,4.853,0,0,1,1.7-4.085c2-1.54,4.973-.775,5.1-.741a.774.774,0,0,1-.4,1.5c-.024,0-2.369-.6-3.76.476a3.408,3.408,0,0,0-1.086,2.854,3.315,3.315,0,0,0,1.082,2.84,4.436,4.436,0,0,0,3.312.4v-3.44a.774.774,0,1,1,1.549,0Zm2.159,1.075a.775.775,0,0,1-.777-.773l-.007-8.419a.774.774,0,1,1,1.549,0l.007,8.419A.772.772,0,0,1,208.154,382.4Zm9.354-.752a.776.776,0,0,1-.563.744.857.857,0,0,1-.211.029.775.775,0,0,1-.661-.367l-3.756-6.095.007,5.686a.774.774,0,1,1-1.549,0l-.011-8.426a.775.775,0,0,1,1.434-.408l3.764,6.107.009-5.7a.774.774,0,1,1,1.549,0Z" transform="translate(0 8)" fill="#003444"/>
    </g>
  </g>
</svg>
